<svg width="512" height="512" viewBox="0 0 512 512" fill="none" xmlns="http://www.w3.org/2000/svg">
<rect width="512" height="512" rx="72" fill="#45BFE6"/>
<path d="M406 256C406 286.685 396.589 316.632 379.037 341.802C361.484 366.971 336.635 386.152 307.841 396.757C279.046 407.362 247.692 408.881 218.007 401.109C188.323 393.337 161.736 376.648 141.833 353.293C121.93 329.938 109.668 301.04 106.702 270.499C103.736 239.957 110.208 209.241 125.246 182.493C140.283 155.744 163.162 134.252 190.797 120.913C218.431 107.574 249.492 103.032 279.789 107.898" stroke="white" stroke-width="72" stroke-linecap="round" stroke-linejoin="round"/>
<circle cx="256" cy="256" r="82" fill="white"/>
<circle cx="370" cy="155" r="32" fill="white"/>
</svg>
